# xmcd
#
# Track frame offsets:
#	150
#	21318
#	37571
#	64505
#	90415
#	110893
#	134066
#	153055
#	175458
#	196665
#	219193
#
# Disc length: 3345 seconds
# Revision: 0
# Processed by: cddbd v1.5.2PL0 Copyright (c) Steve Scherf et al.
# Submitted via: dBpowerAMP V12.0
#
DISCID=880d0f0b
DTITLE=Jonny Lang - Fight for My Soul
DYEAR=2013
DGENRE=Blues Rock Soul
TTITLE0=Blew Up (The House)
TTITLE1=Breakin' In
TTITLE2=We Are the Same
TTITLE3=What You're Looking For
TTITLE4=Not Right
TTITLE5=The Truth
TTITLE6=River
TTITLE7=Fight for My Soul
TTITLE8=All of a Sudden
TTITLE9=Seasons
TTITLE10=I'll Always Be
EXTD=
EXTT0=
EXTT1=
EXTT2=
EXTT3=
EXTT4=
EXTT5=
EXTT6=
EXTT7=
EXTT8=
EXTT9=
EXTT10=
PLAYORDER=
